<?xml version="1.0" encoding="iso-8859-1"?>
<!-- Generator: Adobe Illustrator 21.0.0, SVG Export Plug-In . SVG Version: 6.00 Build 0)  -->
<svg version="1.1" id="Layer_1" xmlns="http://www.w3.org/2000/svg" xmlns:xlink="http://www.w3.org/1999/xlink" x="0px" y="0px"
	 viewBox="0 0 24 24" enable-background="new 0 0 24 24" xml:space="preserve">
<g>
	<path fill="#303C42" d="M23.5,3H20V1h3.5C23.7763672,1,24,0.7763672,24,0.5S23.7763672,0,23.5,0H2C0.8969727,0,0,0.8969727,0,2
		v21.5C0,23.7763672,0.2236328,24,0.5,24S1,23.7763672,1,23.5V2c0-0.5512695,0.4487305-1,1-1h5v2H3.5C3.2236328,3,3,3.2236328,3,3.5
		v10C3,13.7763672,3.2236328,14,3.5,14h20c0.2763672,0,0.5-0.2236328,0.5-0.5v-10C24,3.2236328,23.7763672,3,23.5,3z M8,1h11v2H8V1z
		"/>
	<rect x="4" y="4" fill="#29B6F6" width="19" height="9"/>
	<path fill="#303C42" d="M10.5,11h2c0.2763672,0,0.5-0.2236328,0.5-0.5S12.7763672,10,12.5,10H11V9h1
		c0.2763672,0,0.5-0.2236328,0.5-0.5S12.2763672,8,12,8h-1V7h1.5C12.7763672,7,13,6.7763672,13,6.5S12.7763672,6,12.5,6h-2
		C10.2236328,6,10,6.2236328,10,6.5v4C10,10.7763672,10.2236328,11,10.5,11z"/>
	<path fill="#303C42" d="M6.5,11C6.7763672,11,7,10.7763672,7,10.5V9h0.5C7.7758789,9,8,9.2241211,8,9.5v1
		C8,10.7763672,8.2236328,11,8.5,11S9,10.7763672,9,10.5v-1c0-0.3837891-0.1450195-0.734375-0.3828125-1
		C8.8549805,8.234375,9,7.8837891,9,7.5C9,6.6728516,8.3271484,6,7.5,6h-1C6.2236328,6,6,6.2236328,6,6.5v4
		C6,10.7763672,6.2236328,11,6.5,11z M7,7h0.5C7.7758789,7,8,7.2241211,8,7.5S7.7758789,8,7.5,8H7V7z"/>
	<path fill="#303C42" d="M14.5,11c0.2763672,0,0.5-0.2236328,0.5-0.5V7h0.5C15.7758789,7,16,7.2241211,16,7.5v3
		c0,0.2763672,0.2236328,0.5,0.5,0.5s0.5-0.2236328,0.5-0.5v-3C17,6.6728516,16.3271484,6,15.5,6h-1
		C14.2236328,6,14,6.2236328,14,6.5v4C14,10.7763672,14.2236328,11,14.5,11z"/>
	<path fill="#303C42" d="M18,7h1v3.5c0,0.2763672,0.2236328,0.5,0.5,0.5s0.5-0.2236328,0.5-0.5V7h1
		c0.2763672,0,0.5-0.2236328,0.5-0.5S21.2763672,6,21,6h-3c-0.2763672,0-0.5,0.2236328-0.5,0.5S17.7236328,7,18,7z"/>
	<linearGradient id="SVGID_1_" gradientUnits="userSpaceOnUse" x1="-1.8567469" y1="5.5384927" x2="22.4738922" y2="16.8840561">
		<stop  offset="0" style="stop-color:#FFFFFF;stop-opacity:0.2"/>
		<stop  offset="1" style="stop-color:#FFFFFF;stop-opacity:0"/>
	</linearGradient>
	<path fill="url(#SVGID_1_)" d="M23.5,3H20V1h3.5C23.7763672,1,24,0.7763672,24,0.5S23.7763672,0,23.5,0H2
		C0.8969727,0,0,0.8969727,0,2v21.5C0,23.7763672,0.2236328,24,0.5,24S1,23.7763672,1,23.5V2c0-0.5512695,0.4487305-1,1-1h5v2H3.5
		C3.2236328,3,3,3.2236328,3,3.5v10C3,13.7763672,3.2236328,14,3.5,14h20c0.2763672,0,0.5-0.2236328,0.5-0.5v-10
		C24,3.2236328,23.7763672,3,23.5,3z M8,1h11v2H8V1z"/>
</g>
<g>
</g>
<g>
</g>
<g>
</g>
<g>
</g>
<g>
</g>
<g>
</g>
<g>
</g>
<g>
</g>
<g>
</g>
<g>
</g>
<g>
</g>
<g>
</g>
<g>
</g>
<g>
</g>
<g>
</g>
</svg>
